<svg width="929" height="197" viewBox="0 0 929 197" fill="none" xmlns="http://www.w3.org/2000/svg">
<path d="M122.559 16C110.853 16 95.7894 25.5193 83.242 40.8459C68.5644 58.7776 76.4847 71.6793 82.8501 82.0429C83.8299 83.6389 85.7515 84.7046 87.9386 84.8694C88.1219 84.8745 88.3116 84.8848 88.5012 84.8848C90.4797 84.8848 92.3571 84.128 93.5581 82.8255C108.691 66.3868 132.819 40.6297 137.218 37.0413C138.406 36.0785 139.07 34.7657 139.07 33.4014C139.07 20.5717 130.537 16 122.559 16ZM137.591 62.3093C129.942 62.3093 121.314 68.1373 108.735 81.7958C95.309 96.3708 93.1788 109.149 101.813 123.225C102.768 124.779 104.62 125.835 106.738 126.036C106.978 126.061 107.224 126.072 107.465 126.072C109.329 126.072 111.112 125.397 112.325 124.223C123.192 113.602 145.025 92.4683 149.86 88.5247C151.049 87.5568 151.712 86.2491 151.712 84.8848C151.712 79.2989 151.712 62.3093 137.591 62.3093V62.3093Z" fill="#FFCC4D"/>
<path d="M176.2 72.1015C174.506 69.62 170.65 68.7344 167.61 70.1194C122.281 90.6252 80.4859 142.968 64.1521 171.073C69.4492 118.586 99.3544 67.8798 149.86 26.7446C152.332 24.7316 152.332 21.4778 149.86 19.4648C147.389 17.4518 143.394 17.4518 140.922 19.4648C90.587 60.4611 59.8411 110.678 52.3948 163.006C48.1344 133.676 46.2127 91.3923 62.6666 61.2333C64.0889 58.6334 62.6477 55.5907 59.4618 54.4375C56.2696 53.274 52.5339 54.4529 51.1179 57.0477C42.7361 72.4052 38.8233 90.5171 37.4517 108.577C31.8638 98.878 25.2961 90.0331 15.6312 90.0331H15.3404C9.58816 90.0331 4.65136 92.4323 0.669054 98.9192C-0.892264 101.462 0.371961 103.666 3.4946 104.938C6.62355 106.214 10.4162 105.174 11.9775 102.636C13.9434 99.434 15.2961 98.6721 15.2708 98.5588C19.2911 99.5679 26.2949 112.439 28.9371 117.309C30.1761 119.59 31.3012 121.644 32.2683 123.23C33.2039 124.754 34.9548 125.691 36.8701 125.953C37.0345 151.473 41.2823 175.017 44.2216 188.202L44.348 188.768C44.9043 191.255 47.5655 193 50.568 193C50.9409 193 51.3202 192.974 51.6995 192.918C52.4707 192.799 53.1597 192.552 53.7918 192.238C54.721 192.681 55.7387 193 56.8954 193C58.0522 193 59.0699 192.681 60.0054 192.243C60.9157 192.681 61.9144 193 63.0522 193H63.2166C66.5668 193 69.3544 190.694 69.5377 187.955C69.898 182.616 85.3026 156.992 108.368 131.101C109.026 131.024 109.677 130.932 110.296 130.679C111.839 130.051 113.564 129.279 115.404 128.45C121.308 125.788 131.169 121.345 135.037 123.199C135.979 123.652 139.07 125.953 139.07 136.368C139.07 139.215 141.896 141.517 145.391 141.517C148.887 141.517 151.712 139.215 151.712 136.368C151.712 124.857 148.362 117.649 141.459 114.333C136.51 111.96 130.916 112.15 125.404 113.438C140.069 99.4649 156.617 86.8463 173.741 79.0981C176.801 77.7132 177.901 74.5881 176.2 72.1015V72.1015Z" fill="#088845"/>
<path d="M259 196.2C248.867 196.2 239.733 193.867 231.6 189.2C223.6 184.533 217.333 178.133 212.8 170C208.4 161.733 206.2 152.4 206.2 142C206.2 131.6 208.4 122.333 212.8 114.2C217.333 105.933 223.6 99.4667 231.6 94.8C239.733 90.1333 248.867 87.8 259 87.8C270.2 87.8 279.733 90.3333 287.6 95.4C295.467 100.467 301.067 107.333 304.4 116L284.2 124.4C279.667 113.6 271.067 108.2 258.4 108.2C252.933 108.2 247.867 109.6 243.2 112.4C238.667 115.2 235 119.2 232.2 124.4C229.533 129.467 228.2 135.333 228.2 142C228.2 148.667 229.533 154.6 232.2 159.8C235 165 238.667 169 243.2 171.8C247.867 174.6 252.933 176 258.4 176C264.8 176 270.267 174.6 274.8 171.8C279.467 168.867 283 164.733 285.4 159.4L305.2 168C301.333 176.667 295.467 183.533 287.6 188.6C279.733 193.667 270.2 196.2 259 196.2ZM354.933 196.2C347.599 196.2 341.066 194.8 335.333 192C329.599 189.067 325.133 185 321.933 179.8C318.733 174.467 317.133 168.467 317.133 161.8C317.133 151.267 321.066 142.933 328.933 136.8C336.933 130.667 346.999 127.6 359.133 127.6C365.133 127.6 370.533 128.2 375.333 129.4C380.133 130.467 383.933 131.667 386.733 133V127.8C386.733 121.533 384.399 116.467 379.733 112.6C375.066 108.6 369.066 106.6 361.733 106.6C356.533 106.6 351.599 107.733 346.933 110C342.399 112.267 338.733 115.4 335.933 119.4L320.533 107.6C325.066 101.333 330.933 96.4667 338.133 93C345.333 89.5333 353.333 87.8 362.133 87.8C376.933 87.8 388.333 91.4667 396.333 98.8C404.333 106 408.333 116.2 408.333 129.4V193H386.733V180.8H385.733C382.799 185.2 378.666 188.867 373.333 191.8C367.999 194.733 361.866 196.2 354.933 196.2ZM358.733 178C364.066 178 368.866 176.733 373.133 174.2C377.399 171.667 380.733 168.267 383.133 164C385.533 159.733 386.733 155.133 386.733 150.2C383.666 148.467 380.066 147.067 375.933 146C371.933 144.933 367.733 144.4 363.333 144.4C355.066 144.4 348.999 146.067 345.133 149.4C341.266 152.6 339.333 156.8 339.333 162C339.333 166.667 341.133 170.533 344.733 173.6C348.333 176.533 352.999 178 358.733 178ZM432.308 91H453.308V104.4H454.308C457.374 99.4667 461.708 95.4667 467.308 92.4C472.908 89.3333 478.908 87.8 485.308 87.8C492.641 87.8 499.041 89.5333 504.508 93C509.974 96.3333 513.908 100.8 516.308 106.4C519.774 100.8 524.374 96.3333 530.108 93C535.974 89.5333 542.841 87.8 550.708 87.8C562.441 87.8 571.308 91.4 577.308 98.6C583.441 105.667 586.508 115.333 586.508 127.6V193H564.508V131.4C564.508 115.933 557.908 108.2 544.708 108.2C537.641 108.2 531.841 111.067 527.308 116.8C522.774 122.533 520.508 129.6 520.508 138V193H498.508V131.4C498.508 115.933 491.708 108.2 478.108 108.2C471.174 108.2 465.441 111.067 460.908 116.8C456.508 122.533 454.308 129.6 454.308 138V193H432.308V91ZM642.628 196.2C635.295 196.2 628.761 194.8 623.028 192C617.295 189.067 612.828 185 609.628 179.8C606.428 174.467 604.828 168.467 604.828 161.8C604.828 151.267 608.761 142.933 616.628 136.8C624.628 130.667 634.695 127.6 646.828 127.6C652.828 127.6 658.228 128.2 663.028 129.4C667.828 130.467 671.628 131.667 674.428 133V127.8C674.428 121.533 672.095 116.467 667.428 112.6C662.761 108.6 656.761 106.6 649.428 106.6C644.228 106.6 639.295 107.733 634.628 110C630.095 112.267 626.428 115.4 623.628 119.4L608.228 107.6C612.761 101.333 618.628 96.4667 625.828 93C633.028 89.5333 641.028 87.8 649.828 87.8C664.628 87.8 676.028 91.4667 684.028 98.8C692.028 106 696.028 116.2 696.028 129.4V193H674.428V180.8H673.428C670.495 185.2 666.361 188.867 661.028 191.8C655.695 194.733 649.561 196.2 642.628 196.2ZM646.428 178C651.761 178 656.561 176.733 660.828 174.2C665.095 171.667 668.428 168.267 670.828 164C673.228 159.733 674.428 155.133 674.428 150.2C671.361 148.467 667.761 147.067 663.628 146C659.628 144.933 655.428 144.4 651.028 144.4C642.761 144.4 636.695 146.067 632.828 149.4C628.961 152.6 627.028 156.8 627.028 162C627.028 166.667 628.828 170.533 632.428 173.6C636.028 176.533 640.695 178 646.428 178ZM720.003 91H741.003V106H742.003C744.27 100.8 748.203 96.5333 753.803 93.2C759.403 89.7333 765.336 88 771.603 88C776.536 88 780.67 88.6667 784.003 90V112.8C778.136 110.667 772.87 109.6 768.203 109.6C763.136 109.6 758.603 110.933 754.603 113.6C750.736 116.267 747.67 119.867 745.403 124.4C743.136 128.8 742.003 133.667 742.003 139V193H720.003V91ZM829.347 196.2C822.014 196.2 815.48 194.8 809.747 192C804.014 189.067 799.547 185 796.347 179.8C793.147 174.467 791.547 168.467 791.547 161.8C791.547 151.267 795.48 142.933 803.347 136.8C811.347 130.667 821.414 127.6 833.547 127.6C839.547 127.6 844.947 128.2 849.747 129.4C854.547 130.467 858.347 131.667 861.147 133V127.8C861.147 121.533 858.814 116.467 854.147 112.6C849.48 108.6 843.48 106.6 836.147 106.6C830.947 106.6 826.014 107.733 821.347 110C816.814 112.267 813.147 115.4 810.347 119.4L794.947 107.6C799.48 101.333 805.347 96.4667 812.547 93C819.747 89.5333 827.747 87.8 836.547 87.8C851.347 87.8 862.747 91.4667 870.747 98.8C878.747 106 882.747 116.2 882.747 129.4V193H861.147V180.8H860.147C857.214 185.2 853.08 188.867 847.747 191.8C842.414 194.733 836.28 196.2 829.347 196.2ZM833.147 178C838.48 178 843.28 176.733 847.547 174.2C851.814 171.667 855.147 168.267 857.547 164C859.947 159.733 861.147 155.133 861.147 150.2C858.08 148.467 854.48 147.067 850.347 146C846.347 144.933 842.147 144.4 837.747 144.4C829.48 144.4 823.414 146.067 819.547 149.4C815.68 152.6 813.747 156.8 813.747 162C813.747 166.667 815.547 170.533 819.147 173.6C822.747 176.533 827.414 178 833.147 178Z" fill="#088845"/>
</svg>
